<svg width="128" height="128" xmlns:xlink="http://www.w3.org/1999/xlink" xmlns="http://www.w3.org/2000/svg"><defs><linearGradient id="b"><stop style="stop-color:#393939;stop-opacity:1" offset="0"/><stop style="stop-color:#b381b5;stop-opacity:1" offset="1"/></linearGradient><linearGradient id="a"><stop style="stop-color:red;stop-opacity:1" offset=".05"/><stop style="stop-color:#8500ff;stop-opacity:1" offset=".379"/><stop style="stop-color:#334a7c;stop-opacity:1" offset=".942"/></linearGradient><linearGradient xlink:href="#a" id="c" x1="0" y1="0" x2="32" y2="32" gradientUnits="userSpaceOnUse"/><linearGradient xlink:href="#b" id="e" x1="-200.033" y1="95.112" x2="-111.762" y2="95.112" gradientUnits="userSpaceOnUse"/><filter style="color-interpolation-filters:sRGB" id="d" x="-.15" y="-.15" width="1.3" height="1.3"><feGaussianBlur stdDeviation="2 2" result="blur"/></filter></defs><path style="fill:url(#c);fill-opacity:1;stroke-width:5.496;stroke-linejoin:bevel;stroke-miterlimit:40.6" d="M4 0h24l4 4v24l-4 4H4l-4-4V4z" transform="scale(4)"/><path style="display:inline;fill:#000;fill-opacity:1;stroke-width:5.496;stroke-linejoin:bevel;stroke-miterlimit:40.6;filter:url(#d)" d="M11 0h10l11 11v10L21 32H11L0 21V11z" transform="scale(4)"/><path style="display:inline;fill:#000;fill-opacity:1;stroke-width:5.496;stroke-linejoin:bevel;stroke-miterlimit:40.6" d="M11 0h10l11 11v10L21 32H11L0 21V11z" transform="scale(4)"/><g style="fill:url(#e);fill-opacity:1" transform="translate(219.897 -31.112)"><path style="fill:url(#e);fill-opacity:1;stroke-width:.168152" d="M-196.033 87.799a4 4 0 0 0-4 4V98.426a4 4 0 0 0 4 4h.191a4 4 0 0 0 4-4V91.799a4 4 0 0 0-4-4z"/><path style="fill:url(#e);fill-opacity:1;stroke-width:.290825" d="M-182.686 73.236a4 4 0 0 0-4 4V112.988a4 4 0 0 0 4 4h.192a4 4 0 0 0 4-4V77.236a4 4 0 0 0-4-4z"/><path style="fill:url(#e);fill-opacity:1;stroke-width:.390799" d="M-169.34 55.611a4 4 0 0 0-4 4V130.613a4 4 0 0 0 4 4h.192a4 4 0 0 0 4-4V59.611a4 4 0 0 0-4-4z"/><path style="fill:url(#e);fill-opacity:1;stroke-width:.355845" d="M-155.994 62.361a4 4 0 0 0-4 4V123.863a4 4 0 0 0 4 4h.193a4 4 0 0 0 4-4V66.361a4 4 0 0 0-4-4z"/><path style="fill:url(#e);fill-opacity:1;stroke-width:.205644" d="M-142.646 84.176a4 4 0 0 0-4 4v13.875a4 4 0 0 0 4 4h.19a4 4 0 0 0 4-4V88.176a4 4 0 0 0-4-4z"/><path style="fill:url(#e);fill-opacity:1;stroke-width:.270148" d="M-129.3 76.236a4 4 0 0 0-4 4V109.988a4 4 0 0 0 4 4h.193a4 4 0 0 0 4-4V80.236a4 4 0 0 0-4-4z"/><path style="fill:url(#e);fill-opacity:1;stroke-width:.118901" d="M-115.953 91.457a3.832 3.832 0 0 0-4 3.656 3.832 3.832 0 0 0 4 3.657h.191a3.832 3.832 0 0 0 4-3.657 3.832 3.832 0 0 0-4-3.656z"/></g></svg>